HIERARCHY
ROOT Hips
{
    OFFSET   0.000000   0.000000   0.000000
    CHANNELS 6 Xposition Yposition Zposition Zrotation Xrotation Yrotation
    JOINT Chest
    {
        OFFSET   0.000000   8.007230   0.000000
        CHANNELS 3 Zrotation Xrotation Yrotation
        JOINT Chest2
        {
            OFFSET   0.000000  22.077100   0.000000
            CHANNELS 3 Zrotation Xrotation Yrotation
            JOINT Neck
            {
                OFFSET   0.000000  23.254800  -0.000021
                CHANNELS 3 Zrotation Xrotation Yrotation
                JOINT Head
                {
                    OFFSET   0.000000  14.370000   1.956610
                    CHANNELS 3 Zrotation Xrotation Yrotation
                    End Site
                    {
                        OFFSET   0.000000  19.566000   0.000000
                    }
                }
            }
            JOINT LeftCollar
            {
                OFFSET   3.911900  19.017000  -0.467063
                CHANNELS 3 Zrotation Xrotation Yrotation
                JOINT LeftShoulder
                {
                    OFFSET  10.383700   0.000000   0.000000
                    CHANNELS 3 Zrotation Xrotation Yrotation
                    JOINT LeftElbow
                    {
                        OFFSET  26.662100   0.001529   0.000325
                        CHANNELS 3 Zrotation Xrotation Yrotation
                        JOINT LeftWrist
                        {
                            OFFSET  28.869000  -0.000011  -0.000096
                            CHANNELS 3 Zrotation Xrotation Yrotation
                            JOINT LeftFinger0
                            {
                                OFFSET   2.044650  -2.323460   3.252850
                                CHANNELS 3 Zrotation Xrotation Yrotation
                                JOINT LeftFinger01
                                {
                                    OFFSET   3.088130   0.000000   0.000000
                                    CHANNELS 3 Zrotation Xrotation Yrotation
                                    JOINT LeftFinger02
                                    {
                                        OFFSET   2.639460   0.000000   0.000000
                                        CHANNELS 3 Zrotation Xrotation Yrotation
                                        End Site
                                        {
                                            OFFSET   2.582190   0.000000   0.000000
                                        }
                                    }
                                }
                            }
                            JOINT LeftFinger1
                            {
                                OFFSET   8.364480   0.000000   3.252850
                                CHANNELS 3 Zrotation Xrotation Yrotation
                                JOINT LeftFinger11
                                {
                                    OFFSET   4.646930   0.000000   0.000000
                                    CHANNELS 3 Zrotation Xrotation Yrotation
                                    JOINT LeftFinger12
                                    {
                                        OFFSET   2.323460   0.000000   0.000000
                                        CHANNELS 3 Zrotation Xrotation Yrotation
                                        End Site
                                        {
                                            OFFSET   2.273050   0.000000   0.000000
                                        }
                                    }
                                }
                            }
                            JOINT LeftFinger2
                            {
                                OFFSET   8.364480   0.000016   1.078090
                                CHANNELS 3 Zrotation Xrotation Yrotation
                                JOINT LeftFinger21
                                {
                                    OFFSET   5.111620   0.000000   0.000000
                                    CHANNELS 3 Zrotation Xrotation Yrotation
                                    JOINT LeftFinger22
                                    {
                                        OFFSET   2.788160   0.000017   0.000000
                                        CHANNELS 3 Zrotation Xrotation Yrotation
                                        End Site
                                        {
                                            OFFSET   2.727660   0.000000   0.000000
                                        }
                                    }
                                }
                            }
                            JOINT LeftFinger3
                            {
                                OFFSET   7.899780   0.000015  -1.078090
                                CHANNELS 3 Zrotation Xrotation Yrotation
                                JOINT LeftFinger31
                                {
                                    OFFSET   4.646920   0.000000   0.000000
                                    CHANNELS 3 Zrotation Xrotation Yrotation
                                    JOINT LeftFinger32
                                    {
                                        OFFSET   2.323470   0.000000   0.000000
                                        CHANNELS 3 Zrotation Xrotation Yrotation
                                        End Site
                                        {
                                            OFFSET   2.273050   0.000000   0.000000
                                        }
                                    }
                                }
                            }
                            JOINT LeftFinger4
                            {
                                OFFSET   7.435090   0.000000  -3.252850
                                CHANNELS 3 Zrotation Xrotation Yrotation
                                JOINT LeftFinger41
                                {
                                    OFFSET   3.717550   0.000000   0.000000
                                    CHANNELS 3 Zrotation Xrotation Yrotation
                                    JOINT LeftFinger42
                                    {
                                        OFFSET   1.858760   0.000000   0.000000
                                        CHANNELS 3 Zrotation Xrotation Yrotation
                                        End Site
                                        {
                                            OFFSET   1.818440   0.000000   0.000000
                                        }
                                    }
                                }
                            }
                        }
                    }
                }
            }
            JOINT RightCollar
            {
                OFFSET  -3.911900  19.017000  -0.467062
                CHANNELS 3 Zrotation Xrotation Yrotation
                JOINT RightShoulder
                {
                    OFFSET -10.383700   0.000015   0.000000
                    CHANNELS 3 Zrotation Xrotation Yrotation
                    JOINT RightElbow
                    {
                        OFFSET -26.662100   0.001341   0.000385
                        CHANNELS 3 Zrotation Xrotation Yrotation
                        JOINT RightWrist
                        {
                            OFFSET -28.869000   0.000025  -0.000080
                            CHANNELS 3 Zrotation Xrotation Yrotation
                            JOINT RightFinger0
                            {
                                OFFSET  -2.044650  -2.323490   3.252850
                                CHANNELS 3 Zrotation Xrotation Yrotation
                                JOINT RightFinger01
                                {
                                    OFFSET  -3.088130   0.000000   0.000000
                                    CHANNELS 3 Zrotation Xrotation Yrotation
                                    JOINT RightFinger02
                                    {
                                        OFFSET  -2.639460   0.000000   0.000000
                                        CHANNELS 3 Zrotation Xrotation Yrotation
                                        End Site
                                        {
                                            OFFSET  -2.582190   0.000000   0.000000
                                        }
                                    }
                                }
                            }
                            JOINT RightFinger1
                            {
                                OFFSET  -8.364480   0.000000   3.252850
                                CHANNELS 3 Zrotation Xrotation Yrotation
                                JOINT RightFinger11
                                {
                                    OFFSET  -4.646930   0.000000   0.000000
                                    CHANNELS 3 Zrotation Xrotation Yrotation
                                    JOINT RightFinger12
                                    {
                                        OFFSET  -2.323470   0.000000   0.000000
                                        CHANNELS 3 Zrotation Xrotation Yrotation
                                        End Site
                                        {
                                            OFFSET  -2.273050   0.000000   0.000000
                                        }
                                    }
                                }
                            }
                            JOINT RightFinger2
                            {
                                OFFSET  -8.364480   0.000000   1.078090
                                CHANNELS 3 Zrotation Xrotation Yrotation
                                JOINT RightFinger21
                                {
                                    OFFSET  -5.111610   0.000000   0.000000
                                    CHANNELS 3 Zrotation Xrotation Yrotation
                                    JOINT RightFinger22
                                    {
                                        OFFSET  -2.788160   0.000000   0.000000
                                        CHANNELS 3 Zrotation Xrotation Yrotation
                                        End Site
                                        {
                                            OFFSET  -2.727660   0.000000   0.000000
                                        }
                                    }
                                }
                            }
                            JOINT RightFinger3
                            {
                                OFFSET  -7.899780   0.000000  -1.078090
                                CHANNELS 3 Zrotation Xrotation Yrotation
                                JOINT RightFinger31
                                {
                                    OFFSET  -4.646920   0.000000   0.000000
                                    CHANNELS 3 Zrotation Xrotation Yrotation
                                    JOINT RightFinger32
                                    {
                                        OFFSET  -2.323470   0.000000   0.000000
                                        CHANNELS 3 Zrotation Xrotation Yrotation
                                        End Site
                                        {
                                            OFFSET  -2.273050   0.000000   0.000000
                                        }
                                    }
                                }
                            }
                            JOINT RightFinger4
                            {
                                OFFSET  -7.435090   0.000000  -3.252850
                                CHANNELS 3 Zrotation Xrotation Yrotation
                                JOINT RightFinger41
                                {
                                    OFFSET  -3.717550   0.000000   0.000000
                                    CHANNELS 3 Zrotation Xrotation Yrotation
                                    JOINT RightFinger42
                                    {
                                        OFFSET  -1.858770   0.000000   0.000000
                                        CHANNELS 3 Zrotation Xrotation Yrotation
                                        End Site
                                        {
                                            OFFSET  -1.818440   0.000000   0.000000
                                        }
                                    }
                                }
                            }
                        }
                    }
                }
            }
        }
    }
    JOINT LeftHip
    {
        OFFSET   9.783010   0.000000   0.000000
        CHANNELS 3 Zrotation Xrotation Yrotation
        JOINT LeftKnee
        {
            OFFSET   0.000070 -41.789100   0.000028
            CHANNELS 3 Zrotation Xrotation Yrotation
            JOINT LeftAnkle
            {
                OFFSET   0.000087 -41.133200  -0.000100
                CHANNELS 3 Zrotation Xrotation Yrotation
                JOINT LeftToe
                {
                    OFFSET   0.000000  -6.358960  14.674500
                    CHANNELS 3 Zrotation Xrotation Yrotation
                    End Site
                    {
                        OFFSET   0.000000   0.000000   3.913200
                    }
                }
            }
        }
    }
    JOINT RightHip
    {
        OFFSET  -9.783020   0.000000   0.000000
        CHANNELS 3 Zrotation Xrotation Yrotation
        JOINT RightKnee
        {
            OFFSET   0.000044 -41.789100  -0.000870
            CHANNELS 3 Zrotation Xrotation Yrotation
            JOINT RightAnkle
            {
                OFFSET  -0.000090 -41.133200  -0.000245
                CHANNELS 3 Zrotation Xrotation Yrotation
                JOINT RightToe
                {
                    OFFSET   0.000000  -6.358960  14.674500
                    CHANNELS 3 Zrotation Xrotation Yrotation
                    End Site
                    {
                        OFFSET   0.000000   0.000000   3.913200
                    }
                }
            }
        }
    }
}
MOTION
Frames: 5
Frame Time:   0.016667
  0.190071  89.485400  -2.199040  -1.077830  -8.160210   2.178990   0.765161   5.870600  -0.631917   1.608520  11.731800  -1.353810  -2.236300  -1.076340  -0.047180  -3.677530  -2.172560   7.832080  -9.130570  -0.062296  10.576700 -76.099600   9.708490   0.792693  -0.448643   1.991620 -21.929700   8.944680 -11.703900   1.730880  39.043200  32.004700 -50.651700 -32.844800  -0.001361   0.000000 -11.422400   0.000000   0.002954 -35.919200  -1.771580   2.448480 -29.425600   0.003594   0.000413 -20.597900  -0.009950   0.001157 -35.355700  -3.552290   4.996120 -53.177400  -0.012341   0.002281 -35.434100  -0.000448   0.003217 -29.572000  -3.866480   6.772430 -44.713400   0.004731   0.001880 -29.779100  -0.000083   0.002644 -32.437000  -4.438670   6.938520 -49.073500   0.005534   0.003468 -32.683000  -0.002204   0.003928   8.769960   1.991430  10.208600  68.147900   2.620530  -0.239072   3.714470  -3.184870  19.429000 -16.939900  -4.921880   3.739900 -42.630100  39.154900  77.615400  28.525300   0.007373  -0.003950   9.262650   0.011024   0.002128  34.670000  -0.385623  -0.565838  28.365200  -0.002386  -0.000255  19.855600   0.000164   0.003204  33.825900  -3.694490  -5.492380  51.001800   0.004418   0.000224  33.967100   0.003840   0.005139  33.018700  -4.189730  -6.409790  49.877700  -0.005382   0.001600  33.218600   0.002052   0.007774  34.926700  -4.396480  -6.267090  52.748500  -0.004820   0.001256  35.130500   0.006268   0.000958   3.970980   8.870620   1.145930  -0.285008   1.425500  13.453900  -2.882240  -2.253620   1.453830   0.000000   0.000000  -0.000000  -1.653490   7.282510  -2.786890  -0.361689   4.703190 -17.729500   2.600240  -2.888640   2.205450   0.000000   0.000000  -0.000000
  0.208519  89.486500  -2.234030  -1.062950  -8.241450   2.211040   0.772460   5.930680  -0.630491   1.624040  11.851800  -1.352770  -2.252090  -1.091250  -0.047235  -3.703620  -2.202470   7.861620  -9.155510  -0.007881  10.613100 -76.251300   9.400090   0.965676  -0.730814   2.015210 -22.973300   9.174200 -11.837300   2.437850  39.150200  32.264900 -50.583400 -32.817000   0.005437   0.003920 -11.408500  -0.000093   0.002821 -35.831500  -1.983520   2.739250 -29.351300  -0.003612  -0.006277 -20.545900  -0.010215  -0.005102 -35.015600  -3.555350   5.043690 -53.182500  -0.012897  -0.002591 -35.341900  -0.000490  -0.004343 -29.376300  -4.063870   7.166590 -44.440400  -0.005459  -0.011122 -29.597300  -0.000091  -0.008371 -32.146100  -4.729270   7.461710 -48.677900  -0.007014  -0.016525 -32.419500  -0.002280  -0.011927   8.723360   1.940830  10.172600  68.206900   2.416290  -0.351874   3.823330  -3.003180  20.323900 -16.829900  -4.998070   3.728090 -42.425600  38.679300  77.518700  28.080500   0.007385  -0.003876   9.040240   0.011021   0.002116  34.647900  -0.285137  -0.424070  28.344700  -0.002354  -0.000285  19.841200   0.000187   0.003154  33.791500  -3.662110  -5.452990  50.948000   0.004426   0.000241  33.931300   0.003790   0.005114  33.074800  -4.140900  -6.319460  49.952600  -0.005409   0.001641  33.268500   0.002038   0.008300  34.893500  -4.332240  -6.184580  52.688200  -0.004754   0.001150  35.090300   0.006254   0.000873   3.957960   8.925400   1.132040  -0.287593   1.434560  13.468800  -2.874740  -2.238940   1.419470  -0.000000   0.000000   0.000000  -1.665900   7.319480  -2.766510  -0.365188   4.760200 -17.746900   2.619520  -2.904150   2.184030  -0.000000   0.000000   0.000000
  0.239221  89.489700  -2.294180  -1.037010  -8.391010   2.259320   0.783965   6.037950  -0.627887   1.648690  12.066300  -1.350660  -2.277090  -1.124410  -0.047345  -3.744980  -2.269120   7.911000  -9.187030   0.080798  10.691500 -76.485100   8.820650   1.254240  -1.180850   2.200710 -24.866400   9.492650 -12.271200   3.149090  39.575900  32.822600 -50.748100 -32.662500   0.012234   0.007840 -11.331300  -0.000225   0.002601 -35.741700  -2.195300   3.030130 -29.277100  -0.011585  -0.012966 -20.493900  -0.010481  -0.011361 -34.675300  -3.559720   5.091280 -53.217900  -0.013453  -0.008283 -35.249800  -0.000560  -0.012333 -29.177900  -4.260720   7.561030 -44.167300  -0.016651  -0.024123 -29.415400  -0.000104  -0.019467 -31.849800  -5.018780   7.985530 -48.282300  -0.020892  -0.036518 -32.156000  -0.002407  -0.027987   8.634300   1.861140  10.111500  68.291600   1.991680  -0.564280   3.934580  -2.721700  22.072900 -16.594800  -5.344570   3.717890 -42.396300  38.169700  77.444200  27.317000   0.007426  -0.003760   8.658510   0.011013   0.002085  34.535200  -0.090788  -0.144722  28.249900  -0.002286  -0.000341  19.774900   0.000231   0.003049  33.763800  -3.597620  -5.356320  50.894200   0.004444   0.000283  33.895400   0.003687   0.005071  33.236900  -4.068300  -6.167820  50.181900  -0.005459   0.001732  33.421200   0.002010   0.009570  34.832400  -4.227670  -6.051170  52.580600  -0.004625   0.000951  35.018600   0.006219   0.000714   3.935180   9.031660   1.108980  -0.291647   1.447930  13.494000  -2.862620  -2.211850   1.365880  -0.000000   0.000000  -0.000000  -1.691290   7.392010  -2.736010  -0.367776   4.857880 -17.779600   2.655300  -2.929930   2.162630  -0.000000   0.000000  -0.000000
  0.263610  89.494900  -2.345990  -1.015600  -8.540110   2.285770   0.793208   6.139830  -0.624570   1.668370  12.269900  -1.347160  -2.298130  -1.171900  -0.047480  -3.783450  -2.364880   7.949690  -9.183420   0.142721  10.793900 -76.663700   8.172480   1.491090  -1.533400   2.636380 -26.683400   9.718190 -13.035200   3.108720  40.214200  33.574900 -51.570100 -32.303500   0.011808   0.007457 -11.151800  -0.000282   0.002381 -35.884600  -2.010630   2.779620 -29.378200  -0.012480  -0.012902 -20.564600  -0.008623  -0.011348 -35.055300  -3.562040   5.027940 -53.361700  -0.010501  -0.009240 -35.422400  -0.000630  -0.012835 -29.359700  -4.162980   7.355930 -44.407900  -0.017820  -0.024052 -29.575700  -0.000115  -0.019561 -32.118500  -4.981250   7.868870 -48.666200  -0.022443  -0.036439 -32.411700  -0.002533  -0.028226   8.536400   1.806810  10.047400  68.336500   1.450490  -0.792500   3.969340  -2.569640  24.003300 -16.194400  -6.056930   4.013240 -42.955500  38.133400  77.475600  26.602000   0.007507  -0.003661   8.300980   0.011002   0.002043  34.253700   0.140681   0.198083  28.020700  -0.002194  -0.000415  19.614500   0.000294   0.002906  33.923900  -3.501510  -5.166620  51.116700   0.004467   0.000344  34.043900   0.003553   0.005023  33.521700  -4.022150  -6.012800  50.593700  -0.005518   0.001864  33.696600   0.001969   0.011490  34.771300  -4.130750  -5.930030  52.476100  -0.004461   0.000690  34.949000   0.006167   0.000505   3.916580   9.150070   1.091250  -0.293948   1.452250  13.515200  -2.853770  -2.184560   1.331320   0.000000   0.000000  -0.000000  -1.719400   7.472480  -2.718210  -0.362895   4.942050 -17.814100   2.690820  -2.951730   2.175770  -0.000000   0.000000   0.000000
  0.288105  89.501900  -2.400390  -0.989995  -8.706890   2.308790   0.798825   6.248070  -0.622495   1.681490  12.486400  -1.345280  -2.309980  -1.222290  -0.047615  -3.799670  -2.466570   7.990760  -9.161330   0.211844  10.913200 -76.764600   7.540640   1.718840  -1.717470   3.250370 -28.734200   9.861580 -14.114400   2.950290  40.865500  34.326800 -52.579100 -31.831800   0.010688   0.006692 -10.915900  -0.000302   0.002249 -36.226300  -1.571310   2.173420 -29.635800  -0.012608  -0.012449 -20.745000  -0.005166  -0.011258 -35.888900  -3.563430   4.889800 -53.607500  -0.005732  -0.009377 -35.790700  -0.000672  -0.012907 -29.750600  -3.884120   6.789190 -44.929900  -0.017987  -0.023555 -29.923300  -0.000122  -0.019574 -32.698800  -4.813810   7.476110 -49.490200  -0.022664  -0.035889 -32.960400  -0.002609  -0.028260   8.430640   1.758720  10.008200  68.351500   0.857655  -1.036050   3.956500  -2.375890  26.261300 -15.841500  -7.077450   4.531390 -43.470000  38.153600  77.570100  25.976200   0.007602  -0.003605   7.988080   0.010987   0.001990  33.944500   0.365224   0.534839  27.771200  -0.002109  -0.000464  19.439800   0.000335   0.002765  34.189500  -3.437460  -5.034220  51.512500   0.004495   0.000415  34.307300   0.003418   0.004993  33.866900  -3.999750  -5.919120  51.112600  -0.005555   0.002010  34.041000   0.001936   0.013720  34.704500  -4.074110  -5.859810  52.370800  -0.004312   0.000522  34.878900   0.006102   0.000369   3.892790   9.282530   1.072620  -0.296939   1.460030  13.536700  -2.845410  -2.154320   1.299930   0.000000   0.000000   0.000000  -1.757220   7.566890  -2.706050  -0.354520   5.028550 -17.851000   2.732390  -2.970830   2.205570   0.000000   0.000000  -0.000000
